<svg width="48" height="48" viewBox="0 0 48 48" fill="none" xmlns="http://www.w3.org/2000/svg">
<path d="M15.8516 12.1504C22.397 12.1504 27.7031 17.4562 27.7031 24.001C27.703 30.5456 22.3969 35.8515 15.8516 35.8516C9.30617 35.8516 4.00015 30.5457 4 24.001C4 17.4561 9.30608 12.1504 15.8516 12.1504ZM27.7051 12.1494C34.2249 12.1495 39.5144 17.4134 39.5557 23.9229V14.752C42.2642 16.9237 43.9999 20.2585 44 24C44 27.7413 42.2638 31.0752 39.5557 33.2471V24.0762C39.5144 30.5856 34.2249 35.8505 27.7051 35.8506L27.7041 35.8496V12.1494H27.7051Z" fill="#151515"/>
</svg>
