<svg width="48" height="48" viewBox="0 0 48 48" fill="none" xmlns="http://www.w3.org/2000/svg">
<path d="M18.4194 7.99902C18.4194 12.7157 20.9256 19.9995 23.9995 23.8916C27.0736 19.9996 29.5806 12.7159 29.5806 7.99902H39.9995V18.667C34.39 18.6671 28.0173 20.7182 24.4106 24C28.0172 27.2819 34.3899 29.3329 39.9995 29.333V40.001H29.5806C29.5806 35.2839 27.0738 27.9993 23.9995 24.1074C20.9253 27.9994 18.4194 35.284 18.4194 40.001H8.00049V29.333C13.6098 29.3329 19.9817 27.2816 23.5884 24C19.9817 20.7185 13.6098 18.6671 8.00049 18.667V7.99902H18.4194Z" fill="#151515"/>
</svg>
