<svg width="48" height="48" viewBox="0 0 48 48" fill="none" xmlns="http://www.w3.org/2000/svg">
<path d="M7.59101 38.5046C7.22863 38.7754 7 39.194 7 39.6463C7 40.3939 7.60605 41 8.35365 41C8.80602 41 9.2246 40.7714 9.49538 40.409C12.4839 36.4097 17.8621 33.7416 24 33.7416C30.1379 33.7416 35.5161 36.4097 38.5046 40.409C38.7754 40.7714 39.194 41 39.6464 41C40.394 41 41 40.394 41 39.6464C41 39.194 40.7714 38.7754 40.409 38.5046C36.4097 35.5161 33.7416 30.1379 33.7416 24C33.7416 17.8621 36.4097 12.4839 40.409 9.49539C40.7714 9.2246 41 8.80602 41 8.35365C41 7.60605 40.394 7 39.6464 7C39.194 7 38.7754 7.22863 38.5046 7.591C35.5161 11.5903 30.1379 14.2584 24 14.2584C17.8621 14.2584 12.4839 11.5903 9.49538 7.591C9.2246 7.22863 8.80602 7 8.35365 7C7.60605 7 7 7.60605 7 8.35365C7 8.80602 7.22863 9.2246 7.591 9.49539C11.5903 12.4839 14.2584 17.8621 14.2584 24C14.2584 30.1379 11.5903 35.5161 7.59101 38.5046Z" fill="#151515"/>
</svg>
