<svg width="48" height="48" viewBox="0 0 48 48" fill="none" xmlns="http://www.w3.org/2000/svg">
<path d="M13.168 15.6226C13.168 17.37 13.5457 19.0151 14.2139 20.4819C16.8407 18.1733 20.2487 16.7721 24 16.772C27.751 16.772 31.1584 18.1737 33.7852 20.4819C34.4534 19.0151 34.8311 17.3701 34.8311 15.6226V8.5708H39.1172V15.6226C39.1172 18.6925 38.2523 21.571 36.7539 23.9995C38.2526 26.4282 39.1172 29.3071 39.1172 32.3774V39.4292H34.832V32.3774C34.832 30.6295 34.4547 28.9842 33.7861 27.5171C31.1592 29.8259 27.7515 31.228 24 31.228C20.2486 31.228 16.8407 29.8267 14.2139 27.5181C13.5458 28.9848 13.1689 30.63 13.1689 32.3774V39.4292H8.88281V32.3774C8.88281 29.3074 9.74661 26.428 11.2451 23.9995C9.74699 21.5712 8.88281 18.6922 8.88281 15.6226V8.5708H13.168V15.6226ZM24 21.0581C21.2168 21.0582 18.6521 22.166 16.7178 23.9995C18.6523 25.8332 21.2166 26.9418 24 26.9419C26.7832 26.9418 29.347 25.833 31.2812 23.9995C29.3468 22.1665 26.7829 21.0581 24 21.0581Z" fill="#151515"/>
</svg>
